:SAMPLES-PER-SECOND 30
:FULLY-SPECIFIED
:DEGREES
83
root  -35.2922 37.5598 -24.255 -155.884 -86.6079 172.992
RightUpLeg  -50.31 -13.379 -2.84894
RightLeg  22.6232 0.869417 0.170351
RightFoot  9.78416 -0.615563 3.62528
RightToes  0.000482159 0.542163 -0.142577
Spine  58.9736 -5.88895 10.6714
Spine1  9.79208 1.78022 -4.81551
HEad  -31.464 -12.4833 -1.80656
LeftShoulder1  8.58753 -23.6084 -25.3712
LeftArm  -26.0235 -58.0231 -24.4403
LeftForeArm  15.3946 1.01556 -3.55619
LeftHand  -0.25398 0.0180481 5.50724
RightShoulder  4.74399 15.4671 18.4609
RightArm  -38.0289 51.8733 1.4414
RightForeArm  -4.19062 0.51608 5.01052
RightHand  -0.800108 2.6033 -11.8414
LeftUpLeg  -52.7433 16.7064 -14.5409
LeftLeg  31.4102 1.21896 1.1499
LeftFoot  2.57551 -1.62282 13.1026
LeftToes  1.06245e-005 4.65856e-005 -8.18503e-006
84
root  -35.7902 37.2707 -25.1857 -120.942 -88.8178 140.241
RightUpLeg  -54.4806 -15.4303 -0.259061
RightLeg  27.6366 0.648589 0.14822
RightFoot  10.0813 -0.016608 0.429462
RightToes  0.000482159 0.542163 -0.142577
Spine  61.388 -6.50183 12.1887
Spine1  8.9321 2.43567 -5.13932
HEad  -34.6072 -14.3784 0.346699
LeftShoulder1  8.49728 -25.4548 -22.8733
LeftArm  -31.1869 -63.0006 -20.9498
LeftForeArm  15.8094 0.806473 -2.70252
LeftHand  -0.25398 0.0180481 5.50724
RightShoulder  4.64846 15.4686 17.916
RightArm  -43.522 51.6177 -5.67351
RightForeArm  -5.84098 0.423966 4.50767
RightHand  -0.717107 2.54656 -10.729
LeftUpLeg  -56.1228 15.6843 -13.8464
LeftLeg  34.6965 0.317623 0.601439
LeftFoot  1.43334 -1.3052 11.5363
LeftToes  1.06245e-005 4.65856e-005 -8.18503e-006
85
root  -36.3067 37.017 -26.0243 -40.7527 -89.2078 62.99
RightUpLeg  -59.4817 -17.1145 2.83837
RightLeg  32.0647 1.58748 0.828048
RightFoot  7.8548 0.25974 -1.22301
RightToes  0.000482159 0.542163 -0.142577
Spine  63.725 -6.62341 12.7434
Spine1  7.62088 3.05285 -5.40884
HEad  -37.846 -15.0978 1.88825
LeftShoulder1  8.41821 -26.7297 -21.2581
LeftArm  -39.1149 -66.7691 -14.2766
LeftForeArm  16.3811 -0.735501 -1.74528
LeftHand  -0.25398 0.0180481 5.50724
RightShoulder  4.57784 15.9731 16.831
RightArm  -49.0507 51.2962 -12.7778
RightForeArm  -7.79096 -0.082125 3.95663
RightHand  -0.746152 3.16694 -10.3886
LeftUpLeg  -60.4527 16.1064 -14.5426
LeftLeg  37.4806 0.444747 0.747152
LeftFoot  0.568858 -1.05682 10.0765
LeftToes  1.06245e-005 4.65856e-005 -8.18503e-006
86
root  -36.8347 36.8342 -26.7556 -10.6333 -88.6788 36.4668
RightUpLeg  -64.7427 -18.0693 6.40809
RightLeg  35.1634 2.4431 1.58436
RightFoot  5.6631 0.51855 -3.20417
RightToes  0.000482159 0.542163 -0.142577
Spine  65.9336 -6.48201 12.5847
Spine1  5.73136 3.3994 -5.84763
HEad  -40.2579 -14.9098 2.80004
LeftShoulder1  8.3541 -27.5425 -20.2484
LeftArm  -49.0531 -69.1444 -4.05522
LeftForeArm  15.5013 -2.28078 -1.18097
LeftHand  -0.25398 0.0180481 5.50724
RightShoulder  4.7024 17.0822 16.0974
RightArm  -54.459 50.7676 -19.683
RightForeArm  -10.8389 -0.77093 3.42374
RightHand  -0.853439 4.2439 -10.6005
LeftUpLeg  -65.5174 17.4544 -17.0366
LeftLeg  39.4348 1.94589 2.10054
LeftFoot  0.112078 -0.95131 9.45907
LeftToes  1.06245e-005 4.65856e-005 -8.18503e-006
87
root  -37.3747 36.6716 -27.3923 0.536545 -88.2171 28.7977
RightUpLeg  -69.2664 -18.4714 9.78155
RightLeg  37.35 2.57557 1.83619
RightFoot  4.24557 0.751565 -5.26541
RightToes  0.000482159 0.542163 -0.142577
Spine  67.8166 -6.42434 12.1845
Spine1  4.26892 3.53839 -6.48213
HEad  -41.7765 -14.5818 3.37886
LeftShoulder1  8.24415 -28.3489 -19.133
LeftArm  -60.6666 -70.2821 9.0034
LeftForeArm  12.9838 -2.98321 -0.841503
LeftHand  -0.25398 0.0180481 5.50724
RightShoulder  4.76816 18.1001 15.2451
RightArm  -59.7064 50.0824 -25.3366
RightForeArm  -14.5317 -1.32605 2.72224
RightHand  -1.03141 5.89179 -10.9789
LeftUpLeg  -70.3507 18.7152 -20.3866
LeftLeg  40.8398 3.84074 3.93743
LeftFoot  -0.556144 -0.909691 9.65172
LeftToes  1.06245e-005 4.65856e-005 -8.18503e-006
88
root  -37.9051 36.5068 -27.9237 9.94653 -87.731 22.2801
RightUpLeg  -72.7665 -18.4761 12.3512
RightLeg  39.2801 2.51175 1.92173
RightFoot  2.78214 0.808666 -6.35675
RightToes  0.000482159 0.542163 -0.142577
Spine  69.6121 -6.53322 11.7128
Spine1  2.91026 3.4533 -7.17829
HEad  -42.5179 -14.01 3.87259
LeftShoulder1  8.0848 -29.0621 -17.9835
LeftArm  -71.7933 -70.0256 21.4729
LeftForeArm  9.51112 -3.47869 -0.399166
LeftHand  -0.25398 0.0180481 5.50724
RightShoulder  4.57727 18.5868 13.7556
RightArm  -63.8389 49.5567 -28.6366
RightForeArm  -17.9676 -1.45229 2.01596
RightHand  -1.33299 8.20787 -11.7811
LeftUpLeg  -73.9838 19.393 -22.8804
LeftLeg  41.8175 4.8164 4.99183
LeftFoot  -1.91078 -0.79492 9.74444
LeftToes  1.06245e-005 4.65856e-005 -8.18503e-006
89
root  -38.4006 36.3539 -28.3521 19.9555 -87.3999 14.6862
RightUpLeg  -75.6417 -18.1021 14.3854
RightLeg  41.1241 2.53564 2.07854
RightFoot  1.09189 0.765214 -6.94494
RightToes  0.000482159 0.542163 -0.142577
Spine  71.3354 -6.40046 11.2156
Spine1  1.44843 3.39678 -7.45436
HEad  -42.855 -13.0889 4.19574
LeftShoulder1  7.88465 -29.6494 -16.8461
LeftArm  -79.7357 -68.8758 29.5301
LeftForeArm  5.55573 -4.5875 0.279645
LeftHand  -0.25398 0.0180481 5.50724
RightShoulder  4.16256 18.452 11.8181
RightArm  -66.4093 49.1893 -29.9748
RightForeArm  -20.6357 -1.01489 1.5566
RightHand  -1.64858 10.3489 -12.6103
LeftUpLeg  -76.5655 19.7478 -23.9513
LeftLeg  42.4466 4.53462 4.8256
LeftFoot  -3.59916 -0.612094 9.33998
LeftToes  1.06245e-005 4.65856e-005 -8.18503e-006
90
root  -38.8507 36.2168 -28.699 31.1002 -87.19 5.72501
RightUpLeg  -78.1156 -17.5193 16.4146
RightLeg  42.6058 2.40532 2.06529
RightFoot  -0.216719 0.768366 -7.88461
RightToes  0.000482159 0.542163 -0.142577
Spine  72.7748 -5.84782 10.6759
Spine1  -0.0622012 3.46552 -7.11044
HEad  -43.0914 -11.9545 4.15068
LeftShoulder1  7.59252 -29.9697 -15.6506
LeftArm  -84.2146 -67.5897 33.7686
LeftForeArm  1.15554 -5.79388 0.809339
LeftHand  -0.25398 0.0180481 5.50724
RightShoulder  3.70907 18.0441 9.88684
RightArm  -68.2332 48.6836 -29.9865
RightForeArm  -22.0972 0.0112912 1.12067
RightHand  -1.60676 11.2331 -11.6784
LeftUpLeg  -78.8885 20.1259 -24.4492
LeftLeg  43.0382 3.64622 4.0403
LeftFoot  -4.94149 -0.471299 8.9517
LeftToes  1.06245e-005 4.65856e-005 -8.18503e-006
91
root  -39.2481 36.1015 -28.9765 39.7876 -86.901 -1.06139
RightUpLeg  -80.1562 -17.1138 18.4428
RightLeg  43.6639 2.16944 1.90661
RightFoot  -0.991812 0.796221 -8.83588
RightToes  0.000482159 0.542163 -0.142577
Spine  73.6747 -5.16094 10.0948
Spine1  -0.942202 3.48434 -6.31451
HEad  -43.6598 -10.8635 3.80065
LeftShoulder1  7.25462 -29.9411 -14.5771
LeftArm  -87.286 -66.4766 37.4875
LeftForeArm  -3.26881 -6.14795 0.993506
LeftHand  -0.25398 0.0180481 5.50724
RightShoulder  3.24373 17.4368 7.97294
RightArm  -70.6974 47.9836 -28.8838
RightForeArm  -22.2373 2.00531 0.413683
RightHand  -1.00468 10.8892 -7.62002
LeftUpLeg  -81.1818 20.5063 -25.1221
LeftLeg  43.7911 2.82318 3.30142
LeftFoot  -5.55692 -0.41642 8.88825
LeftToes  1.06245e-005 4.65856e-005 -8.18503e-006
92
root  -39.5788 36.0364 -29.179 43.9404 -86.5324 -3.75259
RightUpLeg  -81.8068 -17.0764 20.2222
RightLeg  44.5096 2.12859 1.9237
RightFoot  -1.47577 0.789833 -9.23624
RightToes  0.000482159 0.542163 -0.142577
Spine  74.234 -4.8749 9.46122
Spine1  -0.98535 3.13772 -5.80429
HEad  -44.6992 -9.62114 3.52406
LeftShoulder1  6.88579 -29.2952 -13.8359
LeftArm  -90.6524 -65.5955 41.486
LeftForeArm  -6.71117 -6.34943 1.1532
LeftHand  -0.25398 0.0180481 5.50724
RightShoulder  2.88964 16.6984 6.65168
RightArm  -73.8833 47.4026 -27.2663
RightForeArm  -21.7278 5.52594 -0.0876032
RightHand  -0.142523 10.2156 -1.57559
LeftUpLeg  -82.9994 20.7188 -25.7886
LeftLeg  44.4662 2.2076 2.72984
LeftFoot  -5.6128 -0.403044 8.71603
LeftToes  1.06245e-005 4.65856e-005 -8.18503e-006
93
root  -39.8363 36.0407 -29.3064 45.8302 -86.2385 -4.57266
RightUpLeg  -83.1244 -17.212 21.7001
RightLeg  45.1173 2.24818 2.09464
RightFoot  -1.56141 0.801298 -9.45673
RightToes  0.000482159 0.542163 -0.142577
Spine  74.5325 -4.93124 8.87508
Spine1  -0.275396 2.65014 -5.76247
HEad  -46.0261 -8.36358 3.29309
LeftShoulder1  6.53717 -28.1156 -13.516
LeftArm  -95.0187 -65.1575 43.9915
LeftForeArm  -7.87509 -8.35441 1.7095
LeftHand  -0.25398 0.0180481 5.50724
RightShoulder  2.7255 15.8417 6.41938
RightArm  -76.8767 47.0189 -26.3378
RightForeArm  -21.0985 10.1719 0.319403
RightHand  0.568358 9.72672 3.80843
LeftUpLeg  -84.0489 20.7548 -26.118
LeftLeg  44.6855 1.73565 2.25039
LeftFoot  -5.5288 -0.382873 8.18389
LeftToes  1.06245e-005 4.65856e-005 -8.18503e-006
94
root  -40.0301 36.093 -29.374 47.2913 -86.0937 -5.22632
RightUpLeg  -84.0131 -17.3386 22.9484
RightLeg  45.2519 2.32471 2.18777
RightFoot  -1.19785 0.880295 -9.97242
RightToes  0.000482159 0.542163 -0.142577
Spine  74.6494 -5.07775 8.43818
Spine1  0.56159 2.3362 -6.0801
HEad  -47.0651 -7.47507 2.92681
LeftShoulder1  6.23736 -26.7404 -13.4896
LeftArm  -100.33 -65.2382 43.6077
LeftForeArm  -5.30142 -12.7225 1.74476
LeftHand  -0.25398 0.0180481 5.50724
RightShoulder  2.74577 15.114 7.16137
RightArm  -79.9509 46.665 -26.466
RightForeArm  -19.2491 14.4399 1.57074
RightHand  0.987781 9.35135 7.2166
LeftUpLeg  -84.5119 20.6962 -26.2405
LeftLeg  44.4239 1.49588 1.98018
LeftFoot  -5.48448 -0.365575 7.78124
LeftToes  1.06245e-005 4.65856e-005 -8.18503e-006
